{"title":"Pirates.of.the.Caribbean.On.Stranger.Tides.2011.DvDRip.XviD Ac3.","uid":6620118,"size":1658111913,"categoryP":"video","categoryS":"movies","magnet":"?xt=urn:btih:2701c4435adbad4d5648c4f7ad9eb1417b6d74ee&amp;dn=Pirates.of.the.Caribbean.On.Stranger.Tides.2011.DvDRip.XviD+Ac3.&amp;tr=udp%3A%2F%2Ftracker.openbittorrent.com%3A80&amp;tr=udp%3A%2F%2Fopen.demonii.com%3A1337&amp;tr=udp%3A%2F%2Ftracker.coppersurfer.tk%3A6969&amp;tr=udp%3A%2F%2Fexodus.desync.com%3A6969","seeders":0,"leechers":1,"uploader":"SnowCrash03","files":-1,"time":1313950860,"description":"Genre: Action | Adventure | Fantasy\n Language: English\n IMDb: http://www.imdb.com/title/tt1298650/\n Source: DVD Thanks!\n Subtitles: Romana\n \nFormat : AVI\n Format/Info : Audio Video Interleave\n File size : 1.54 GiB\n Duration : 2h 15mn\n Overall bit rate : 1 630 Kbps\n \nVideo\n ID : 0\n Format : MPEG-4 Visual\n Format profile : Advanced Simple@L5\n Format settings, BVOP : Yes\n Format settings, QPel : No\n Format settings, GMC : No warppoints\n Format settings, Matrix : Default (H.263)\n Codec ID : XVID\n Codec ID/Hint : XviD\n Duration : 2h 15mn\n Bit rate : 1 236 Kbps\n Width : 640 pixels\n Height : 272 pixels\n Display aspect ratio : 2.35:1\n Frame rate : 23.976 fps\n Color space : YUV\n Chroma subsampling : 4:2:0\n Bit depth : 8 bits\n Scan type : Progressive\n Bits/(Pixel*Frame) : 0.296\n Stream size : 1.17 GiB (76%)\n Writing library : XviD 1.2.1 (UTC 2008-12-04)\n \nAudio\n ID : 1\n Format : AC-3\n Format/Info : Audio Coding 3\n Mode extension : CM (complete main)\n Codec ID : 2000\n Duration : 2h 15mn\n Bit rate mode : Constant\n Bit rate : 384 Kbps\n Channel(s) : 6 channels\n Channel positions : Front: L C R, Side: L R, LFE\n Sampling rate : 48.0 KHz\n Bit depth : 16 bits\n Stream size : 372 MiB (24%)\n Alignment : Aligned on interleaves\n Interleave, duration : 42 ms (1.00 video frame)\n Interleave, preload duration : 512 ms\n \n\nPlot:\nJack Sparrow and Barbossa embark on a quest to find the elusive fountain of youth, only to discover that Blackbeard and his daughter are after it too. \n ","torrent":{"xt":"urn:btih:2701c4435adbad4d5648c4f7ad9eb1417b6d74ee","amp;dn":"Pirates.of.the.Caribbean.On.Stranger.Tides.2011.DvDRip.XviD+Ac3.","amp;tr":["udp%3A%2F%2Ftracker.openbittorrent.com%3A80","udp%3A%2F%2Fopen.demonii.com%3A1337","udp%3A%2F%2Ftracker.coppersurfer.tk%3A6969","udp%3A%2F%2Fexodus.desync.com%3A6969"],"infoHash":"2701c4435adbad4d5648c4f7ad9eb1417b6d74ee","infoHashBuffer":{"type":"Buffer","data":[39,1,196,67,90,219,173,77,86,72,196,247,173,158,177,65,123,109,116,238]},"announce":[],"urlList":[]}}